<svg width="32" height="32" viewBox="0 0 32 32" fill="none" xmlns="http://www.w3.org/2000/svg">
  <ellipse cx="16" cy="24" rx="12" ry="3" fill="#F5E6D3"></ellipse>
  <rect x="4" y="12" width="24" height="12" fill="#F5E6D3"></rect>
  <ellipse cx="16" cy="12" rx="12" ry="3" fill="#F8F0E3"></ellipse>
  <rect x="4" y="17" width="24" height="1" fill="#E6D2B5" opacity="0.6"></rect>
  <path d="M4 12 Q2 14 4 16 Q2 18 4 20 Q2 22 4 24 L4 12 Z" fill="#FFFFFF"></path>
  <path d="M28 12 Q30 14 28 16 Q30 18 28 20 Q30 22 28 24 L28 12 Z" fill="#FFFFFF"></path>
  <ellipse cx="6" cy="15" rx="1.5" ry="2" fill="#FFFFFF" opacity="0.8"></ellipse>
  <ellipse cx="26" cy="15" rx="1.5" ry="2" fill="#FFFFFF" opacity="0.8"></ellipse>
  <ellipse cx="5" cy="19" rx="1" ry="1.5" fill="#FFFFFF" opacity="0.6"></ellipse>
  <ellipse cx="27" cy="19" rx="1" ry="1.5" fill="#FFFFFF" opacity="0.6"></ellipse>
  <path d="M14 8 Q16 6 18 8 Q17 10 16 11 Q15 10 14 8 Z" fill="#FF6B6B"></path>
  <path d="M14.5 8 L15.5 7 L16.5 7 L17.5 8 L16.5 8.5 L15.5 8.5 Z" fill="#228B22"></path>
  <circle cx="15.2" cy="8.5" r="0.3" fill="#FFE4E1"></circle>
  <circle cx="16.8" cy="8.8" r="0.3" fill="#FFE4E1"></circle>
  <circle cx="16" cy="9.5" r="0.3" fill="#FFE4E1"></circle>
  <circle cx="8" cy="14" r="0.3" fill="#E6D2B5" opacity="0.5"></circle>
  <circle cx="24" cy="16" r="0.3" fill="#E6D2B5" opacity="0.5"></circle>
  <circle cx="12" cy="20" r="0.2" fill="#E6D2B5" opacity="0.5"></circle>
  <circle cx="20" cy="19" r="0.2" fill="#E6D2B5" opacity="0.5"></circle>
  <ellipse cx="16" cy="25" rx="10" ry="2" fill="#000000" opacity="0.1"></ellipse>
</svg>
